<svg xmlns="http://www.w3.org/2000/svg" xmlns:xlink="http://www.w3.org/1999/xlink" width="32" height="32" id="computer">
  <defs>
    <linearGradient id="a">
      <stop offset="0" stop-color="#000092"></stop>
      <stop offset="1" stop-color="#ff00f3"></stop>
    </linearGradient>
    <linearGradient xlink:href="#a" id="b" x1="6.531" x2="25" y1="15.5" y2="15.5" gradientUnits="userSpaceOnUse"></linearGradient>
  </defs>
  <path fill="url(#b)" d="M8.045 5a.5.5 0 0 0-.5.5v11a.5.5 0 0 0 .5.5h6.5v2h-1v1h2.5v1h-1.5a.5.5 0 0 0-.5.5V23H6.53v1h7.514v1.5a.5.5 0 0 0 .5.5h4a.5.5 0 0 0 .5-.5V24h7.486v-1h-7.486v-1.5a.5.5 0 0 0-.5-.5h-1.5v-1h2.5v-1h-1v-2H24.5a.5.5 0 0 0 .5-.5v-11a.5.5 0 0 0-.5-.5H8.045zm.5 1H24v10H8.545V6zm7 11h2v2h-2v-2zm-.5 5h3v3h-3v-3z" color="#000" font-family="sans-serif" font-weight="400" overflow="visible" style="line-height:normal;text-indent:0;text-align:start;text-decoration-line:none;text-decoration-style:solid;text-decoration-color:#000;text-transform:none;block-progression:tb;isolation:auto;mix-blend-mode:normal"></path>
</svg>
